<svg id="图层_1" data-name="图层 1" xmlns="http://www.w3.org/2000/svg" viewBox="0 0 50 50">
  <defs>
    <style>
      .cls-1 {
        fill: #333;
      }
    </style>
  </defs>
  <title>12</title>
  <path class="cls-1"
    d="M26.25,47.06A22.12,22.12,0,1,1,48.37,25,22.14,22.14,0,0,1,26.25,47.06Zm0-42.46A20.35,20.35,0,1,0,46.6,25,20.37,20.37,0,0,0,26.25,4.6Z" />
  <path class="cls-1"
    d="M26.25,18.07a6.89,6.89,0,0,0-7,7,7,7,0,1,0,14.05,0A6.89,6.89,0,0,0,26.25,18.07Zm0,12.24a5.22,5.22,0,1,1,5.22-5.22A5.23,5.23,0,0,1,26.25,30.31Z" />
  <rect class="cls-1" x="4.14" y="23.95" width="9.39" height="1.99" rx="0.98" ry="0.98" />
  <rect class="cls-1" x="38.98" y="23.97" width="9.39" height="1.99" rx="0.98" ry="0.98" />
  <rect class="cls-1" x="21.58" y="6.53" width="9.39" height="1.99" rx="0.98" ry="0.98"
    transform="translate(33.8 -18.75) rotate(90)" />
  <rect class="cls-1" x="21.56" y="41.37" width="9.39" height="1.99" rx="0.98" ry="0.98"
    transform="translate(68.62 16.11) rotate(90)" />
</svg>