<?xml version="1.0" standalone="no"?>
<!DOCTYPE svg PUBLIC "-//W3C//DTD SVG 1.1//EN" "http://www.w3.org/Graphics/SVG/1.1/DTD/svg11.dtd"><svg t="1641802639502"
  class="icon" viewBox="0 0 1024 1024" version="1.1" xmlns="http://www.w3.org/2000/svg" p-id="14647" width="16"
  height="16">
  <path
    d="M934.24 403.72l25.11-25.11L648 67.26l-25.11 25.11-25.11 25.11 130.36 130.36-286.31 286.31L284.28 376.6c-16.39-16.39-186.64 74.37-216.71 272.69-10.87 71.7 1.94 156.39 52.52 259.45 171.29 51.67 171.29 51.67 259.92 43.28C531 937.72 668.59 760.81 652.24 744.55L492.05 584.37l286.31-286.31 130.77 130.77 25.11-25.11z m-614.8 357.13l-51.57-51.56 125.46-125.46 51.57 51.56-125.46 125.46z"
    p-id="14648" fill="#2c2c2c"></path>
</svg>