<?xml version="1.0" standalone="no"?>
<!DOCTYPE svg PUBLIC "-//W3C//DTD SVG 1.1//EN" "http://www.w3.org/Graphics/SVG/1.1/DTD/svg11.dtd">
<svg t="1632900138707" class="icon" viewBox="0 0 1024 1024" version="1.1" xmlns="http://www.w3.org/2000/svg"
  p-id="126959" width="16" height="16">
  <path
    d="M1004.992 694.848c0-305.472-220.736-610.496-492.992-610.496-272.32 0-493.056 305.024-493.056 610.56 0 305.472 986.048 305.472 986.048 0z"
    fill="#FFFFFF" p-id="126960"></path>
  <path
    d="M18.944 715.648c0 123.712 220.8 224 493.056 224s492.992-100.288 492.992-224-220.736-224-492.992-224c-272.32 0-493.056 100.288-493.056 224z"
    fill="#FFFFFF" p-id="126961"></path>
  <path
    d="M797.568 886.08l-300.992-193.28 197.12-237.888c99.584-85.312 176.32-112.832 230.336-82.368 53.952 30.4 80.96 144.768 80.96 343.04-26.624 49.216-53.568 85.888-80.96 110.208-27.392 24.256-69.568 44.352-126.528 60.224v0.064z m-300.992-193.28L199.232 900.48l-87.36-40.32-87.936-144.64 25.984-224c17.6-98.24 63.872-135.68 138.88-112.256 74.944 23.424 118.336 44.8 129.92 64l177.856 249.408z"
    fill="#666666" p-id="126962"></path>
  <path
    d="M925.184 386.112c61.824 145.28 83.712 260.672 65.6 346.368-18.176 85.632-76.928 141.696-176.256 168.064l-11.008-28.544c-83.584-23.04-80-82.816 11.008-179.2 90.944-96.512 127.808-198.72 110.72-306.752v0.064zM112.64 575.104l-33.984 117.632 90.048 57.6-48.128 121.664C47.808 839.104 16.064 761.088 25.344 637.952c9.344-123.2 22.208-175.296 38.784-156.224l48.448 93.44z"
    fill="#ACACAC" p-id="126963"></path>
  <path
    d="M496.576 692.736h317.952v207.808L496.64 692.736z m-3.584 0l-287.488 207.808-56.96-14.464-61.44-37.568 81.536-98.112 324.352-57.664z m0 0H78.592l33.984-117.632 380.416 117.632z"
    fill="#909090" p-id="126964"></path>
  <path
    d="M0.384 705.92A152.448 152.448 0 0 1 0 694.848C0 368 236.928 64 512 64c275.008 0 512 303.936 512 630.848a42.624 42.624 0 0 1-0.64 9.152c0.448 3.84 0.64 7.68 0.64 11.648C1024 855.36 793.664 960 512 960c-281.792 0-512-104.64-512-244.352 0-3.264 0.128-6.528 0.384-9.728z m37.888-1.664v3.84a72.32 72.32 0 0 0-0.32 7.552c0 107.648 211.2 203.648 474.048 203.648 262.784 0 474.048-96 474.048-203.648 0-2.56-0.128-5.12-0.384-11.392 0.256-3.072 0.384-6.208 0.384-9.408 0-305.92-221.632-590.08-474.048-590.08-252.48 0-474.048 284.16-474.048 590.08 0 3.2 0.064 6.336 0.32 9.408z m632.64-221.376l-30.144 37.12A1037.184 1037.184 0 0 0 512 512c-48.32 0-94.848 3.2-138.624 9.216l-26.24-37.376A1064.832 1064.832 0 0 1 512 471.296c55.424 0 108.8 4.032 158.912 11.584z"
    fill="#666666" p-id="126965"></path>
</svg>