<?xml version="1.0" standalone="no"?>
<!DOCTYPE svg PUBLIC "-//W3C//DTD SVG 1.1//EN" "http://www.w3.org/Graphics/SVG/1.1/DTD/svg11.dtd">
<svg t="1628505904035" class="icon" viewBox="0 0 1024 1024" version="1.1" xmlns="http://www.w3.org/2000/svg" p-id="7504"
  width="16" height="16">
  <path
    d="M901.12 954.88H56.32c-9.984 0-18.944-5.888-23.296-14.848-4.096-8.96-2.816-19.712 3.584-27.392l734.72-875.52c8.96-10.752 25.344-12.288 36.096-3.072 10.752 9.216 12.288 25.344 3.072 36.096L111.104 903.68H901.12c14.08 0 25.6 11.52 25.6 25.6s-11.52 25.6-25.6 25.6z"
    p-id="7505"></path>
  <path
    d="M603.136 943.36h-1.792c-14.08-1.024-24.832-13.056-23.808-27.136 0.768-9.984 1.024-20.224 1.024-30.208 0-141.312-64.512-271.36-177.152-356.864-11.264-8.448-13.568-24.576-4.864-35.84 8.448-11.264 24.576-13.568 35.84-4.864 59.904 45.568 109.824 105.216 143.616 172.032 35.584 70.4 53.76 146.176 53.76 225.536 0 11.264-0.256 22.528-1.024 33.536-1.024 13.312-12.288 23.808-25.6 23.808zM649.472 633.088c-4.608 0-9.216-1.792-12.8-5.12-6.912-6.912-6.912-18.432 0-25.344l105.728-105.728c6.912-6.912 18.432-6.912 25.344 0s6.912 18.432 0 25.344l-105.728 105.728c-3.328 3.328-7.936 5.12-12.544 5.12z"
    p-id="7506"></path>
  <path
    d="M755.2 633.088c-4.608 0-9.216-1.792-12.8-5.12L636.928 522.24c-6.912-6.912-6.912-18.432 0-25.344s18.432-6.912 25.344 0l105.728 105.728c6.912 6.912 6.912 18.432 0 25.344-3.584 3.328-8.192 5.12-12.8 5.12zM829.44 499.2c-35.328 0-64-28.672-64-64s28.672-64 64-64 64 28.672 64 64-28.672 64-64 64z m0-92.16c-15.616 0-28.16 12.544-28.16 28.16s12.544 28.16 28.16 28.16 28.16-12.544 28.16-28.16-12.544-28.16-28.16-28.16z"
    p-id="7507"></path>
</svg>