<?xml version="1.0" standalone="no"?><!DOCTYPE svg PUBLIC "-//W3C//DTD SVG 1.1//EN" "http://www.w3.org/Graphics/SVG/1.1/DTD/svg11.dtd"><svg t="1640053789276" class="icon" viewBox="0 0 1024 1024" version="1.1" xmlns="http://www.w3.org/2000/svg" p-id="2772" width="16" height="16" xmlns:xlink="http://www.w3.org/1999/xlink"><defs><style type="text/css"></style></defs><path d="M503.552 283.456c6.368-11.808 11.52-23.872 15.456-36.192 27.808-86.752 123.392-91.68 175.776-31.296 11.296 12.992 74.496 118.816 90.048 142.144 52.48 78.816 100.448 126.752 147.04 138.368a16 16 0 1 1-7.744 31.04c-56.832-14.144-109.28-66.56-165.952-151.68-16.96-25.504-78.464-128.416-87.552-138.88-37.6-43.36-101.888-40.032-121.152 20.064a251.36 251.36 0 0 1-26.496 56.704c14.88 22.784 28.576 43.264 41.696 62.176 63.776 92.096 112.832 145.6 142.912 152.512a16 16 0 0 1-7.168 31.168c-41.472-9.504-92.896-65.6-162.08-165.44a2614.496 2614.496 0 0 1-35.296-52.48c-20.512 25.536-46.432 49.536-77.696 72a16 16 0 0 1-4.48 2.24c12.384 15.392 25.696 33.056 40.128 53.056a16 16 0 1 1-25.984 18.688c-91.424-126.944-115.264-138.496-140.832-96.704-6.304 10.304-35.2 67.712-44.576 84.16-44.512 77.952-95.744 117.856-153.856 116.864a16 16 0 0 1 0.512-32c44.32 0.768 86.24-31.872 125.536-100.768 8.736-15.232 37.92-73.28 45.088-84.96 34.24-55.904 70.944-53.664 134.944 19.008a15.936 15.936 0 0 1 4.832-5.568c32.512-23.36 58.464-48.192 77.952-74.464-24.48-38.336-92.032-144.736-108.32-168.384-29.536-42.976-53.024-42.656-83.072-5.952-27.776 33.952-55.328 95.04-82.688 176.992-32.576 97.632-79.776 155.648-142.528 171.872a16 16 0 0 1-8-30.976c50.304-13.024 90.688-62.656 120.16-151.04 28.544-85.44 57.344-149.248 88.32-187.104 42.976-52.576 92.032-53.216 134.176 8.064 15.04 21.92 72.192 111.68 100.896 156.768z m-98.304 341.12c-29.664 0-42.88 6.912-62.624 27.904a1196.48 1196.48 0 0 1-13.984 14.912c-25.92 26.432-53.568 41.504-99.68 48.544-83.36 12.768-135.04-4.736-148.448-55.904a16 16 0 0 1 30.976-8.064c8.096 30.976 43.424 42.944 112.64 32.32 38.976-5.92 60.416-17.6 81.632-39.296 3.136-3.2 15.744-16.768 13.344-14.208 25.44-27.072 46.528-38.176 86.144-38.176 41.824 0 65.088 13.024 104.416 48.544l1.472 1.344c34.976 31.616 52.992 41.632 86.752 41.632 36.576 0 61.632-12.512 96.448-42.176l13.088-11.328c5.312-4.608 9.28-7.936 13.248-11.104 19.648-15.712 36.032-24.384 55.104-26.784 43.84-5.568 97.6 20.672 162.688 77.088a16 16 0 0 1-20.928 24.16c-58.88-50.976-105.28-73.6-137.76-69.504-12.064 1.536-23.648 7.648-39.104 20-3.584 2.88-7.296 6.016-12.352 10.368l-13.248 11.456c-40.032 34.144-71.424 49.824-117.184 49.824-43.744 0-67.84-13.44-108.224-49.888l-1.472-1.312c-33.92-30.656-51.168-40.32-82.944-40.32z m0 128c-29.664 0-42.88 6.912-62.624 27.904a1196.48 1196.48 0 0 1-13.984 14.912c-25.92 26.432-53.568 41.504-99.68 48.544-83.36 12.768-135.04-4.736-148.448-55.904a16 16 0 0 1 30.976-8.064c8.096 30.976 43.424 42.944 112.64 32.32 38.976-5.92 60.416-17.6 81.632-39.296 3.2-3.232 16.224-17.28 13.216-14.08 25.472-27.2 46.592-38.304 86.272-38.304 41.824 0 65.088 13.024 104.416 48.544l1.472 1.344c34.976 31.616 52.992 41.632 86.752 41.632 36.576 0 61.632-12.512 96.448-42.176l13.088-11.328c5.312-4.608 9.28-7.936 13.248-11.104 19.648-15.712 36.032-24.384 55.104-26.784 43.84-5.568 97.6 20.672 162.688 77.088a16 16 0 0 1-20.928 24.16c-58.88-50.976-105.28-73.6-137.76-69.504-12.064 1.536-23.648 7.648-39.104 20-3.584 2.88-7.296 6.016-12.352 10.368l-13.248 11.456c-40.032 34.144-71.424 49.824-117.184 49.824-43.744 0-67.84-13.44-108.224-49.888l-1.472-1.312c-33.92-30.656-51.168-40.32-82.944-40.32z m0 96c-29.664 0-42.88 6.912-62.624 27.904a1196.48 1196.48 0 0 1-13.984 14.912c-25.92 26.432-53.568 41.504-99.68 48.544-83.36 12.768-135.04-4.736-148.448-55.904a16 16 0 0 1 30.976-8.064c8.096 30.976 43.424 42.944 112.64 32.32 38.976-5.92 60.416-17.6 81.632-39.296 3.2-3.232 16.224-17.28 13.216-14.08 25.472-27.2 46.592-38.304 86.272-38.304 41.824 0 65.088 13.024 104.416 48.544l1.472 1.344c34.976 31.616 52.992 41.632 86.752 41.632 36.576 0 61.632-12.512 96.448-42.176l13.088-11.328c5.312-4.608 9.28-7.936 13.248-11.104 19.648-15.712 36.032-24.384 55.104-26.784 43.84-5.568 97.6 20.672 162.688 77.088a16 16 0 0 1-20.928 24.16c-58.88-50.976-105.28-73.6-137.76-69.504-12.064 1.536-23.648 7.648-39.104 20-3.584 2.88-7.296 6.016-12.352 10.368l-13.248 11.456c-40.032 34.144-71.424 49.824-117.184 49.824-43.744 0-67.84-13.44-108.224-49.888l-1.472-1.312c-33.92-30.656-51.168-40.32-82.944-40.32z" p-id="2773" fill="#2c2c2c"></path></svg>