<?xml version="1.0" standalone="no"?>
<!DOCTYPE svg PUBLIC "-//W3C//DTD SVG 1.1//EN" "http://www.w3.org/Graphics/SVG/1.1/DTD/svg11.dtd">
<svg t="1641802029437" class="icon" viewBox="0 0 1024 1024" version="1.1" xmlns="http://www.w3.org/2000/svg"
  p-id="11420" width="16" height="16">
  <path
    d="M812 765c57.302 0 105.536 28.972 142.524 83.773 9.887 14.65 6.027 34.54-8.622 44.426-14.649 9.887-34.539 6.027-44.426-8.621C875.762 846.478 846.662 829 812 829c-10.62 0-19.797 2.365-29.381 7.223-0.433 0.22-0.863 0.44-1.29 0.665l-0.962 0.51-0.966 0.527-0.965 0.54-0.967 0.556-0.973 0.574-0.653 0.393-0.991 0.61-0.669 0.42-1.019 0.651-0.691 0.45-0.702 0.464-1.076 0.721-0.733 0.5-1.128 0.78-1.562 1.099-1.218 0.872-1.264 0.915-1.761 1.292-1.383 1.026-1.933 1.448-1.522 1.15-3.245 2.472-6.408 4.92-2.547 1.94-2.429 1.836-1.75 1.311-1.693 1.259-1.642 1.208-1.593 1.16-1.55 1.116-1.01 0.72-0.996 0.702-1.464 1.021-1.436 0.985-0.942 0.637-1.397 0.93-0.92 0.604-0.914 0.591-0.909 0.58-0.905 0.57-0.901 0.559-0.9 0.55-0.9 0.542-0.918 0.544c-0.46 0.27-0.92 0.538-1.38 0.803l-0.927 0.528a176.91 176.91 0 0 1-7.22 3.86c-18.507 9.376-37.816 14.341-59.295 14.341-21.74 0-40.37-5.137-56.965-15.043l-1.075-0.648-1.054-0.648-1.033-0.649c-0.171-0.108-0.341-0.216-0.51-0.325l-1.008-0.652-0.497-0.328-0.985-0.66-0.973-0.665c-0.16-0.112-0.321-0.223-0.481-0.336l-0.957-0.677-0.475-0.342-0.945-0.692-0.47-0.35-0.938-0.71-0.467-0.36-0.934-0.731-0.934-0.746c-0.311-0.251-0.623-0.506-0.935-0.763l-0.939-0.78-0.47-0.398-0.948-0.81-0.477-0.413-0.96-0.843-0.97-0.865-0.982-0.89-0.997-0.917-0.504-0.468-1.022-0.958-1.04-0.987-1.06-1.017-1.083-1.049-1.106-1.082-1.133-1.117-1.16-1.152-1.795-1.798-1.867-1.886-3.03-3.071-1.792-1.801-1.271-1.266-1.606-1.579-1.142-1.108-1.092-1.046-0.704-0.664-0.684-0.64-0.666-0.614-0.97-0.88-0.627-0.558-0.613-0.538-0.601-0.517-0.59-0.499-0.58-0.48-0.57-0.464-0.562-0.448-0.832-0.643-0.548-0.412-0.544-0.399-0.54-0.387-0.54-0.376-0.54-0.367-0.54-0.357-0.542-0.35-0.545-0.342-0.55-0.337-0.555-0.332C531.252 831.182 523.203 829 512 829c-11.189 0-19.877 2.21-28.144 6.626l-0.563 0.304-0.583 0.323-0.578 0.326-0.574 0.33-0.57 0.334-0.711 0.428-0.356 0.218-0.71 0.444-0.356 0.227-0.713 0.464-0.718 0.479-0.724 0.495-0.734 0.514-0.745 0.534-0.758 0.556-0.774 0.578-0.393 0.299-0.801 0.616-0.822 0.643-0.845 0.672-0.87 0.702-0.898 0.734-0.927 0.767-0.96 0.803-1.502 1.273-1.365 1.17-1.542 1.335-1.626 1.419-2.911 2.564-2.009 1.777-1.914 1.686-1.84 1.612-1.774 1.541-1.711 1.474-1.108 0.946-1.084 0.92-1.585 1.329-1.538 1.273-1.003 0.82-1.474 1.187-1.442 1.141-0.945 0.736-0.936 0.718-0.926 0.7-0.919 0.685-0.913 0.67-0.908 0.655-0.906 0.641-0.904 0.63-0.904 0.619-0.906 0.608-0.909 0.6-0.913 0.59-0.92 0.585-0.927 0.578-0.936 0.573-0.947 0.569-0.478 0.283-0.966 0.565-0.98 0.564-0.997 0.562-1.527 0.846c-17.787 9.734-37.209 14.815-59.578 14.815-22.023 0-41.798-4.904-60.62-14.186l-0.6-0.297-1.184-0.594-1.169-0.597-0.579-0.3-1.149-0.603-1.137-0.608-1.128-0.614-0.56-0.31-1.117-0.625-1.11-0.634-0.554-0.32-1.106-0.65-0.552-0.328-1.105-0.665-0.552-0.338-1.108-0.685-1.11-0.699-1.117-0.714-1.123-0.73-0.565-0.37-1.138-0.756-0.573-0.385-1.155-0.784-1.17-0.803-1.184-0.825-1.202-0.846-1.222-0.87-1.242-0.893-1.905-1.387-1.301-0.957-1.328-0.985-2.045-1.53-2.115-1.597-1.451-1.104-1.486-1.135-6.95-5.351-1.45-1.112-1.42-1.08-2.079-1.564-1.351-1.006-1.325-0.975-1.298-0.947-0.64-0.462-1.263-0.903-0.622-0.441-1.227-0.861-1.205-0.833-0.595-0.406-1.173-0.792-0.58-0.386-1.143-0.751-1.125-0.725-0.556-0.353-1.099-0.686c-11.81-7.29-20.703-10.07-31.613-10.301l-1.013-0.014-0.511-0.002c-31.754 0-56.27 16.346-76.454 53.084-8.51 15.49-27.965 21.147-43.454 12.638-15.49-8.51-21.148-27.966-12.638-43.455C98.81 795.104 143.96 765 200.5 765c19.499 0 37.218 4.456 54.259 12.874l1.212 0.605 0.6 0.304 1.19 0.612 1.178 0.619 1.169 0.626 1.16 0.634 1.152 0.644 1.149 0.654 1.145 0.666 1.144 0.678 0.572 0.344 1.146 0.699 0.574 0.355 1.151 0.722c0.193 0.121 0.385 0.244 0.578 0.367l1.161 0.747 1.17 0.765 1.18 0.785 1.193 0.805 0.601 0.41 1.215 0.837 1.231 0.86 1.25 0.883 1.27 0.909 1.293 0.934 1.317 0.96 1.342 0.99 1.37 1.018 1.4 1.048 1.431 1.079 2.21 1.678 8.862 6.817 2.96 2.257 2.226 1.678 1.069 0.8 2.056 1.52 1.957 1.425 0.944 0.678 0.922 0.656 1.346 0.946 1.306 0.9 0.85 0.577 0.834 0.56 0.821 0.541 1.209 0.783 0.792 0.503 0.783 0.488 1.159 0.708 0.765 0.457 0.76 0.444 0.756 0.434 0.753 0.425 0.753 0.415 0.753 0.406 0.753 0.4 0.757 0.392 0.76 0.386 0.766 0.381c10.277 5.068 20.434 7.587 32.315 7.587 11.506 0 20.382-2.322 28.854-6.958l0.876-0.486 0.578-0.329 0.858-0.5 0.569-0.342 0.85-0.523 0.851-0.54 0.855-0.56 0.574-0.386 0.579-0.396 0.584-0.408 0.591-0.42 0.6-0.434 0.607-0.447 0.93-0.7 0.958-0.734 0.654-0.512 1.009-0.801 1.045-0.845 1.456-1.198 1.144-0.956 1.6-1.357 1.263-1.082 1.773-1.535 1.883-1.647 5.724-5.053 2.467-2.162 1.77-1.539 1.146-0.988 1.119-0.959 1.632-1.386 1.582-1.328 1.029-0.853 1.508-1.236 0.985-0.796 0.97-0.775 0.956-0.754 0.944-0.735 0.934-0.717 0.924-0.7 0.46-0.343 0.914-0.676 0.455-0.332 0.907-0.654 0.452-0.322 0.903-0.635 0.902-0.623 0.903-0.612 0.905-0.603 0.454-0.298 0.912-0.59 0.918-0.584 0.925-0.577 0.935-0.572 0.47-0.284 0.952-0.567 0.964-0.564 0.487-0.281 0.986-0.562 1.002-0.562 1.021-0.564C470.31 770.074 489.688 765 512 765c22.605 0 41.892 5.23 59.003 15.328l1.116 0.665 0.549 0.332 1.082 0.665c0.357 0.222 0.711 0.444 1.062 0.667l1.045 0.67 0.516 0.336 1.02 0.678 1.008 0.683 0.996 0.692 0.987 0.7c0.982 0.706 1.952 1.428 2.918 2.17l0.965 0.75 0.965 0.767 0.966 0.783c0.161 0.132 0.323 0.264 0.484 0.398l0.971 0.81 0.977 0.832 0.984 0.853 0.495 0.435 1 0.887 1.01 0.913 1.025 0.939 1.04 0.966 1.058 0.995 1.077 1.026 1.098 1.057 1.121 1.09 1.146 1.123 1.77 1.752 1.834 1.837 1.907 1.925 3.01 3.053 1.752 1.76 1.24 1.236 1.566 1.542 1.47 1.427 1.048 1 0.674 0.635 0.655 0.61 0.637 0.587 0.927 0.839 0.6 0.532 0.586 0.512 0.574 0.493 0.562 0.475 0.826 0.68 0.54 0.433 0.533 0.418 0.527 0.404 0.522 0.391 0.518 0.38 0.515 0.367 0.514 0.357 0.513 0.348 0.514 0.34 0.516 0.331 0.78 0.486 0.525 0.318c6.677 3.986 13.971 5.997 24.161 5.997 11.026 0 20.518-2.44 30.37-7.432l0.962-0.493 0.953-0.5 0.945-0.51 0.628-0.346 0.942-0.529 0.943-0.544 0.949-0.56 0.637-0.385 0.966-0.595 0.98-0.617 0.998-0.642 1.019-0.67 1.044-0.699 0.711-0.484 1.465-1.012 1.138-0.801 1.177-0.84 1.22-0.88 1.695-1.24 1.784-1.321 2.367-1.775 3.062-2.322 2.754-2.108 3.972-3.053 2.017-1.542 2.574-1.956 1.852-1.396 1.199-0.897 1.172-0.873 1.711-1.264 1.66-1.213 1.08-0.781 1.583-1.133 1.033-0.731 1.52-1.062 0.995-0.686 1.47-0.999 0.966-0.646 0.957-0.632 1.421-0.923 0.94-0.6 0.936-0.588 0.933-0.578 0.931-0.569 0.932-0.559 0.932-0.551 0.936-0.544 0.939-0.538 1.42-0.797 1.436-0.788 0.97-0.52 0.98-0.52 0.993-0.518 1.007-0.517 0.509-0.259C771.918 769.895 790.91 765 812 765zM636.801 142.037l0.37 0.663 258.274 474.438c22.006 14.01 41.773 33.995 59.079 59.635 9.887 14.65 6.027 34.54-8.622 44.426-14.649 9.887-34.539 6.027-44.426-8.621-12.614-18.69-26.043-32.417-40.544-41.553a31.985 31.985 0 0 1-8.757-4.896C839.627 659.97 826.285 657 812 657c-10.62 0-19.797 2.365-29.381 7.223-0.433 0.22-0.863 0.44-1.29 0.665l-0.962 0.51-0.966 0.527-0.965 0.54-0.967 0.556-0.973 0.574-0.653 0.393-0.991 0.61-0.669 0.42-1.019 0.651-0.691 0.45-0.702 0.464-1.076 0.721-0.733 0.5-1.128 0.78-1.562 1.099-1.218 0.872-1.264 0.915-1.761 1.292-1.383 1.026-1.933 1.448-1.522 1.15-3.245 2.472-6.408 4.92-2.547 1.94-2.429 1.836-1.75 1.311-1.693 1.259-1.642 1.208-1.593 1.16-1.55 1.116-1.01 0.72-0.996 0.702-1.464 1.021-1.436 0.985-0.942 0.637-1.397 0.93-0.92 0.604-0.914 0.591-0.909 0.58-0.905 0.57-0.901 0.559-0.9 0.55-0.9 0.542-0.918 0.544c-0.46 0.27-0.92 0.538-1.38 0.803l-0.927 0.528a176.91 176.91 0 0 1-7.22 3.86c-18.507 9.376-37.816 14.341-59.295 14.341-21.74 0-40.37-5.137-56.965-15.043l-1.075-0.648-1.054-0.648-1.033-0.649c-0.171-0.108-0.341-0.216-0.51-0.325l-1.008-0.652-0.497-0.328-0.985-0.66-0.973-0.665c-0.16-0.112-0.321-0.223-0.481-0.336l-0.957-0.677-0.475-0.342-0.945-0.692-0.47-0.35-0.938-0.71-0.467-0.36-0.934-0.731-0.934-0.746c-0.311-0.251-0.623-0.506-0.935-0.763l-0.939-0.78-0.47-0.398-0.948-0.81-0.477-0.413-0.96-0.843-0.97-0.865-0.982-0.89-0.997-0.917-0.504-0.468-1.022-0.958-1.04-0.987-1.06-1.017-1.083-1.049-1.106-1.082-1.133-1.117-1.16-1.152-1.795-1.798-1.867-1.886-3.03-3.071-1.792-1.801-1.271-1.266-1.606-1.579-1.142-1.108-1.092-1.046-0.704-0.664-0.684-0.64-0.666-0.614-0.97-0.88-0.627-0.558-0.613-0.538-0.601-0.517-0.59-0.499-0.58-0.48-0.57-0.464-0.562-0.448-0.832-0.643-0.548-0.412-0.544-0.399-0.54-0.387-0.54-0.376-0.54-0.367-0.54-0.357-0.542-0.35-0.545-0.342-0.55-0.337-0.555-0.332C531.252 659.182 523.203 657 512 657c-11.189 0-19.877 2.21-28.144 6.626l-0.563 0.304-0.583 0.323-0.578 0.326-0.574 0.33-0.57 0.334-0.711 0.428-0.356 0.218-0.71 0.444-0.356 0.227-0.713 0.464-0.718 0.479-0.724 0.495-0.734 0.514-0.745 0.534-0.758 0.556-0.774 0.578-0.393 0.299-0.801 0.616-0.822 0.643-0.845 0.672-0.87 0.702-0.898 0.734-0.927 0.767-0.96 0.803-1.502 1.273-1.365 1.17-1.542 1.335-1.626 1.419-2.911 2.564-2.009 1.777-1.914 1.686-1.84 1.612-1.774 1.541-1.711 1.474-1.108 0.946-1.084 0.92-1.585 1.329-1.538 1.273-1.003 0.82-1.474 1.187-1.442 1.141-0.945 0.736-0.936 0.718-0.926 0.7-0.919 0.685-0.913 0.67-0.908 0.655-0.906 0.641-0.904 0.63-0.904 0.619-0.906 0.608-0.909 0.6-0.913 0.59-0.92 0.585-0.927 0.578-0.936 0.573-0.947 0.569-0.478 0.283-0.966 0.565-0.98 0.564-0.997 0.562-1.527 0.846c-17.787 9.734-37.209 14.815-59.578 14.815-22.023 0-41.798-4.904-60.62-14.186l-0.6-0.297-1.184-0.594-1.169-0.597-0.579-0.3-1.149-0.603-1.137-0.608-1.128-0.614-0.56-0.31-1.117-0.625-1.11-0.634-0.554-0.32-1.106-0.65-0.552-0.328-1.105-0.665-0.552-0.338-1.108-0.685-1.11-0.699-1.117-0.714-1.123-0.73-0.565-0.37-1.138-0.756-0.573-0.385-1.155-0.784-1.17-0.803-1.184-0.825-1.202-0.846-1.222-0.87-1.242-0.893-1.905-1.387-1.301-0.957-1.328-0.985-2.045-1.53-2.115-1.597-1.451-1.104-1.486-1.135-6.95-5.351-1.45-1.112-1.42-1.08-2.079-1.564-1.351-1.006-1.325-0.975-1.298-0.947-0.64-0.462-1.263-0.903-0.622-0.441-1.227-0.861-1.205-0.833-0.595-0.406-1.173-0.792-0.58-0.386-1.143-0.751-1.125-0.725-0.556-0.353-1.099-0.686c-11.81-7.29-20.703-10.07-31.613-10.301l-1.013-0.014-0.511-0.002c-11.552 0-22.146 2.163-31.922 6.685a31.884 31.884 0 0 1-13.183 7.905c-11.588 8.672-21.94 21.367-31.349 38.494-8.51 15.49-27.965 21.147-43.454 12.638-15.49-8.51-21.148-27.966-12.638-43.455 15.405-28.04 34.372-49.583 56.541-64.129l190.558-301.163c11.294-17.85 36.424-20.015 50.617-4.528l0.427 0.475 77.262 87.627 137.55-254.752c11.947-22.129 43.478-22.404 55.892-0.76z m-27.62 83.103L477.869 468.343c-10.473 19.396-36.9 22.598-51.715 6.455l-0.445-0.495-79.392-90.044-132.53 209.453c14.39 1.567 27.881 5.696 40.972 12.162l1.212 0.605 0.6 0.304 1.19 0.612 1.178 0.619 1.169 0.626 1.16 0.634 1.152 0.644 1.149 0.654 1.145 0.666 1.144 0.678 0.572 0.344 1.146 0.699 0.574 0.355 1.151 0.722c0.193 0.121 0.385 0.244 0.578 0.367l1.161 0.747 1.17 0.765 1.18 0.785 1.193 0.805 0.601 0.41 1.215 0.837 1.231 0.86 1.25 0.883 1.27 0.909 1.293 0.934 1.317 0.96 1.342 0.99 1.37 1.018 1.4 1.048 1.431 1.079 2.21 1.678 8.862 6.817 2.96 2.257 2.226 1.678 1.069 0.8 2.056 1.52 1.957 1.425 0.944 0.678 0.922 0.656 1.346 0.946 1.306 0.9 0.85 0.577 0.834 0.56 0.821 0.541 1.209 0.783 0.792 0.503 0.783 0.488 1.159 0.708 0.765 0.457 0.76 0.444 0.756 0.434 0.753 0.425 0.753 0.415 0.753 0.406 0.753 0.4 0.757 0.392 0.76 0.386 0.766 0.381c10.277 5.068 20.434 7.587 32.315 7.587 11.506 0 20.382-2.322 28.854-6.958l0.876-0.486 0.578-0.329 0.858-0.5 0.569-0.342 0.85-0.523 0.851-0.54 0.855-0.56 0.574-0.386 0.579-0.396 0.584-0.408 0.591-0.42 0.6-0.434 0.607-0.447 0.93-0.7 0.958-0.734 0.654-0.512 1.009-0.801 1.045-0.845 1.456-1.198 1.144-0.956 1.6-1.357 1.263-1.082 1.773-1.535 1.883-1.647 5.724-5.053 2.467-2.162 1.77-1.539 1.146-0.988 1.119-0.959 1.632-1.386 1.582-1.328 1.029-0.853 1.508-1.236 0.985-0.796 0.97-0.775 0.956-0.754 0.944-0.735 0.934-0.717 0.924-0.7 0.46-0.343 0.914-0.676 0.455-0.332 0.907-0.654 0.452-0.322 0.903-0.635 0.902-0.623 0.903-0.612 0.905-0.603 0.454-0.298 0.912-0.59 0.918-0.584 0.925-0.577 0.935-0.572 0.47-0.284 0.952-0.567 0.964-0.564 0.487-0.281 0.986-0.562 1.002-0.562 1.021-0.564C470.31 598.074 489.688 593 512 593c22.605 0 41.892 5.23 59.003 15.328l1.116 0.665 0.549 0.332 1.082 0.665c0.357 0.222 0.711 0.444 1.062 0.667l1.045 0.67 0.516 0.336 1.02 0.678 1.008 0.683 0.996 0.692 0.987 0.7c0.982 0.706 1.952 1.428 2.918 2.17l0.965 0.75 0.965 0.767 0.966 0.783c0.161 0.132 0.323 0.264 0.484 0.398l0.971 0.81 0.977 0.832 0.984 0.853 0.495 0.435 1 0.887 1.01 0.913 1.025 0.939 1.04 0.966 1.058 0.995 1.077 1.026 1.098 1.057 1.121 1.09 1.146 1.123 1.77 1.752 1.834 1.837 1.907 1.925 3.01 3.053 1.752 1.76 1.24 1.236 1.566 1.542 1.47 1.427 1.048 1 0.674 0.635 0.655 0.61 0.637 0.587 0.927 0.839 0.6 0.532 0.586 0.512 0.574 0.493 0.562 0.475 0.826 0.68 0.54 0.433 0.533 0.418 0.527 0.404 0.522 0.391 0.518 0.38 0.515 0.367 0.514 0.357 0.513 0.348 0.514 0.34 0.516 0.331 0.78 0.486 0.525 0.318c6.677 3.986 13.971 5.997 24.161 5.997 11.026 0 20.518-2.44 30.37-7.432l0.962-0.493 0.953-0.5 0.945-0.51 0.628-0.346 0.942-0.529 0.943-0.544 0.949-0.56 0.637-0.385 0.966-0.595 0.98-0.617 0.998-0.642 1.019-0.67 1.044-0.699 0.711-0.484 1.465-1.012 1.138-0.801 1.177-0.84 1.22-0.88 1.695-1.24 1.784-1.321 2.367-1.775 3.062-2.322 2.754-2.108 3.972-3.053 2.017-1.542 2.574-1.956 1.852-1.396 1.199-0.897 1.172-0.873 1.711-1.264 1.66-1.213 1.08-0.781 1.583-1.133 1.033-0.731 1.52-1.062 0.995-0.686 1.47-0.999 0.966-0.646 0.957-0.632 1.421-0.923 0.94-0.6 0.936-0.588 0.933-0.578 0.931-0.569 0.932-0.559 0.932-0.551 0.936-0.544 0.939-0.538 1.42-0.797 1.436-0.788 0.97-0.52 0.98-0.52 0.993-0.518 1.007-0.517 0.509-0.259c17.495-8.867 35.69-13.734 55.764-14.113L609.181 225.14z"
    p-id="11421" fill="#2c2c2c"></path>
</svg>